External Loads File
version=1
nRows=31
nColumns=13
Range=5.000000e-03-10 seconds
endheader
time 	forceRightX 	forceRightY 	forceRightZ 	pointRightX 	pointRightY 	pointRightZ 	forceLeftX 	forceLeftY 	forceLeftZ 	pointLeftX 	pointLeftY 	pointLeftZ 		
7.505000 134.678945 104.114208 -0.000000 0.168313 0.171811 -0.164063 -4.545876 199.410615 -0.000000 0.399430 0.428425 -0.414361
7.510000 110.713528 54.453649 -0.000000 0.161790 0.179268 -0.163668 -3.989222 227.566281 -0.000000 0.404130 0.422062 -0.414681
7.515000 87.469957 9.060858 -0.000000 0.156064 0.187301 -0.164005 -3.835215 260.099660 -0.000000 0.408350 0.415197 -0.414952
7.520000 65.408192 -31.320235 -0.000000 0.150950 0.195672 -0.164262 -4.057325 296.365115 -0.000000 0.412288 0.407514 -0.415139
7.525000 44.777156 -65.903942 -0.000000 0.146299 0.204322 -0.164489 -4.850439 335.208724 -0.000000 0.415770 0.399026 -0.415249
7.530000 25.844532 -94.092411 -0.000000 0.142299 0.213157 -0.164673 -6.667016 375.053747 -0.000000 0.419290 0.390230 -0.415623
7.535000 8.910984 -115.609588 -0.000000 0.138966 0.222351 -0.164868 -9.842288 414.142588 -0.000000 0.422199 0.381082 -0.415637
7.540000 -5.869346 -130.491976 -0.000000 0.136176 0.231680 -0.165189 -13.933539 450.832903 -0.000000 0.424859 0.371345 -0.415646
7.545000 -18.058494 -139.075503 -0.000000 0.133846 0.240977 -0.165392 -19.289574 483.763968 -0.000000 0.427199 0.361332 -0.415611
7.550000 -27.288327 -142.030831 -0.000000 0.132049 0.250290 -0.165442 -26.003112 511.997648 -0.000000 0.429105 0.351221 -0.415547
7.555000 -33.644863 -140.176197 -0.000000 0.130453 0.259789 -0.165616 -32.829359 535.150633 -0.000000 0.430678 0.340737 -0.415075
7.560000 -36.898368 -134.532693 -0.000000 0.129790 0.269542 -0.165383 -40.210436 553.212238 -0.000000 0.431647 0.330282 -0.415354
7.565000 -37.309286 -126.072364 -0.000000 0.129500 0.279283 -0.165101 -47.505941 566.603803 -0.000000 0.432174 0.319681 -0.415244
7.570000 -35.368121 -115.652286 -0.000000 0.129816 0.289330 -0.164890 -53.675525 576.087764 -0.000000 0.432351 0.308908 -0.415562
7.575000 -31.390702 -104.069358 -0.000000 0.130734 0.299458 -0.164670 -58.989612 582.477251 -0.000000 0.431695 0.298155 -0.414834
7.580000 -25.938147 -91.899311 -0.000000 0.131950 0.309679 -0.164752 -62.877434 586.679679 -0.000000 0.430694 0.287441 -0.414639
7.585000 -19.531554 -79.570477 -0.000000 0.133960 0.320042 -0.164662 -64.890745 589.545462 -0.000000 0.428977 0.276816 -0.414519
7.590000 -12.583720 -67.398489 -0.000000 0.136458 0.330354 -0.164750 -64.918324 591.777063 -0.000000 0.426783 0.266196 -0.414416
7.595000 -5.444954 -55.622495 -0.000000 0.139585 0.340547 -0.164788 -62.821871 593.886266 -0.000000 0.423938 0.255677 -0.414483
7.600000 1.581543 -44.447756 -0.000000 0.143115 0.350777 -0.165039 -58.348987 596.159731 -0.000000 0.420607 0.245360 -0.414325
7.605000 8.263558 -34.048570 -0.000000 0.147227 0.360855 -0.165313 -51.465142 598.610599 -0.000000 0.416606 0.235273 -0.414179
7.610000 14.410019 -24.561169 -0.000000 0.151830 0.370809 -0.165686 -42.031132 601.017991 -0.000000 0.412107 0.225339 -0.414090
7.615000 19.883567 -16.063372 -0.000000 0.157013 0.380479 -0.166086 -30.642035 602.947873 -0.000000 0.407070 0.215821 -0.413921
7.620000 24.519356 -8.600944 -0.000000 0.162926 0.390082 -0.166505 -16.590131 604.012031 -0.000000 0.401528 0.206559 -0.413739
7.625000 28.261298 -2.028594 -0.000000 0.169004 0.399277 -0.167007 -1.592225 603.821327 -0.000000 0.395546 0.197620 -0.413482
7.630000 31.103736 3.830231 -0.000000 0.175640 0.408215 -0.167370 14.492371 602.237761 -0.000000 0.389078 0.189090 -0.413243
7.635000 33.146807 9.226966 -0.000000 0.182902 0.416761 -0.167692 31.180296 599.238335 -0.000000 0.382198 0.180865 -0.413004
7.640000 34.538431 14.449151 -0.000000 0.190585 0.424989 -0.168035 47.586603 594.964823 -0.000000 0.374853 0.173200 -0.412881
7.645000 35.475786 19.696537 -0.000000 0.199585 0.432588 -0.168001 64.228836 589.610064 -0.000000 0.367196 0.166035 -0.412742
7.650000 35.972112 25.420285 -0.000000 0.207257 0.439708 -0.168965 77.032179 584.023417 -0.000000 0.359175 0.159423 -0.412637
7.655000 36.231685 31.552502 -0.000000 0.215982 0.446180 -0.169267 89.238846 578.346732 -0.000000 0.350911 0.153307 -0.412442
